<svg id="visual" viewBox="0 0 960 540" width="960" height="540" xmlns="http://www.w3.org/2000/svg" xmlns:xlink="http://www.w3.org/1999/xlink" version="1.1"><path d="M815 540L811.8 533C808.7 526 802.3 512 807.2 498.2C812 484.3 828 470.7 831.2 456.8C834.3 443 824.7 429 815 415.2C805.3 401.3 795.7 387.7 798.8 373.8C802 360 818 346 814.8 332.2C811.7 318.3 789.3 304.7 776.5 290.8C763.7 277 760.3 263 773.2 249.2C786 235.3 815 221.7 832.7 207.8C850.3 194 856.7 180 858.2 166.2C859.7 152.3 856.3 138.7 846.7 124.8C837 111 821 97 813 83.2C805 69.3 805 55.7 813 41.8C821 28 837 14 845 7L853 0L960 0L960 7C960 14 960 28 960 41.8C960 55.7 960 69.3 960 83.2C960 97 960 111 960 124.8C960 138.7 960 152.3 960 166.2C960 180 960 194 960 207.8C960 221.7 960 235.3 960 249.2C960 263 960 277 960 290.8C960 304.7 960 318.3 960 332.2C960 346 960 360 960 373.8C960 387.7 960 401.3 960 415.2C960 429 960 443 960 456.8C960 470.7 960 484.3 960 498.2C960 512 960 526 960 533L960 540Z" fill="#414b59"></path><path d="M556 540L565.5 533C575 526 594 512 613.2 498.2C632.3 484.3 651.7 470.7 645.3 456.8C639 443 607 429 608.7 415.2C610.3 401.3 645.7 387.7 644 373.8C642.3 360 603.7 346 598.8 332.2C594 318.3 623 304.7 624.7 290.8C626.3 277 600.7 263 591 249.2C581.3 235.3 587.7 221.7 600.5 207.8C613.3 194 632.7 180 627.8 166.2C623 152.3 594 138.7 597.2 124.8C600.3 111 635.7 97 650.2 83.2C664.7 69.3 658.3 55.7 631.2 41.8C604 28 556 14 532 7L508 0L854 0L846 7C838 14 822 28 814 41.8C806 55.7 806 69.3 814 83.2C822 97 838 111 847.7 124.8C857.3 138.7 860.7 152.3 859.2 166.2C857.7 180 851.3 194 833.7 207.8C816 221.7 787 235.3 774.2 249.2C761.3 263 764.7 277 777.5 290.8C790.3 304.7 812.7 318.3 815.8 332.2C819 346 803 360 799.8 373.8C796.7 387.7 806.3 401.3 816 415.2C825.7 429 835.3 443 832.2 456.8C829 470.7 813 484.3 808.2 498.2C803.3 512 809.7 526 812.8 533L816 540Z" fill="#363f4c"></path><path d="M373 540L365 533C357 526 341 512 344.3 498.2C347.7 484.3 370.3 470.7 375.2 456.8C380 443 367 429 371.7 415.2C376.3 401.3 398.7 387.7 390.7 373.8C382.7 360 344.3 346 334.8 332.2C325.3 318.3 344.7 304.7 347.8 290.8C351 277 338 263 325.2 249.2C312.3 235.3 299.7 221.7 314.2 207.8C328.7 194 370.3 180 381.5 166.2C392.7 152.3 373.3 138.7 376.5 124.8C379.7 111 405.3 97 419.8 83.2C434.3 69.3 437.7 55.7 423.3 41.8C409 28 377 14 361 7L345 0L509 0L533 7C557 14 605 28 632.2 41.8C659.3 55.7 665.7 69.3 651.2 83.2C636.7 97 601.3 111 598.2 124.8C595 138.7 624 152.3 628.8 166.2C633.7 180 614.3 194 601.5 207.8C588.7 221.7 582.3 235.3 592 249.2C601.7 263 627.3 277 625.7 290.8C624 304.7 595 318.3 599.8 332.2C604.7 346 643.3 360 645 373.8C646.7 387.7 611.3 401.3 609.7 415.2C608 429 640 443 646.3 456.8C652.7 470.7 633.3 484.3 614.2 498.2C595 512 576 526 566.5 533L557 540Z" fill="#2b333f"></path><path d="M268 540L255.2 533C242.3 526 216.7 512 216.7 498.2C216.7 484.3 242.3 470.7 247.2 456.8C252 443 236 429 240.8 415.2C245.7 401.3 271.3 387.7 274.5 373.8C277.7 360 258.3 346 259.8 332.2C261.3 318.3 283.7 304.7 282 290.8C280.3 277 254.7 263 240.3 249.2C226 235.3 223 221.7 227.8 207.8C232.7 194 245.3 180 245.3 166.2C245.3 152.3 232.7 138.7 239.2 124.8C245.7 111 271.3 97 284.2 83.2C297 69.3 297 55.7 295.3 41.8C293.7 28 290.3 14 288.7 7L287 0L346 0L362 7C378 14 410 28 424.3 41.8C438.7 55.7 435.3 69.3 420.8 83.2C406.3 97 380.7 111 377.5 124.8C374.3 138.7 393.7 152.3 382.5 166.2C371.3 180 329.7 194 315.2 207.8C300.7 221.7 313.3 235.3 326.2 249.2C339 263 352 277 348.8 290.8C345.7 304.7 326.3 318.3 335.8 332.2C345.3 346 383.7 360 391.7 373.8C399.7 387.7 377.3 401.3 372.7 415.2C368 429 381 443 376.2 456.8C371.3 470.7 348.7 484.3 345.3 498.2C342 512 358 526 366 533L374 540Z" fill="#212832"></path><path d="M143 540L139.8 533C136.7 526 130.3 512 130.3 498.2C130.3 484.3 136.7 470.7 135 456.8C133.3 443 123.7 429 133.3 415.2C143 401.3 172 387.7 172 373.8C172 360 143 346 141.3 332.2C139.7 318.3 165.3 304.7 163.8 290.8C162.3 277 133.7 263 120.8 249.2C108 235.3 111 221.7 120.5 207.8C130 194 146 180 144.5 166.2C143 152.3 124 138.7 128.8 124.8C133.7 111 162.3 97 173.5 83.2C184.7 69.3 178.3 55.7 175.2 41.8C172 28 172 14 172 7L172 0L288 0L289.7 7C291.3 14 294.7 28 296.3 41.8C298 55.7 298 69.3 285.2 83.2C272.3 97 246.7 111 240.2 124.8C233.7 138.7 246.3 152.3 246.3 166.2C246.3 180 233.7 194 228.8 207.8C224 221.7 227 235.3 241.3 249.2C255.7 263 281.3 277 283 290.8C284.7 304.7 262.3 318.3 260.8 332.2C259.3 346 278.7 360 275.5 373.8C272.3 387.7 246.7 401.3 241.8 415.2C237 429 253 443 248.2 456.8C243.3 470.7 217.7 484.3 217.7 498.2C217.7 512 243.3 526 256.2 533L269 540Z" fill="#1f252e"></path><path d="M95 540L91.8 533C88.7 526 82.3 512 74.3 498.2C66.3 484.3 56.7 470.7 51.8 456.8C47 443 47 429 56.7 415.2C66.3 401.3 85.7 387.7 87.3 373.8C89 360 73 346 71.3 332.2C69.7 318.3 82.3 304.7 82.3 290.8C82.3 277 69.7 263 64.8 249.2C60 235.3 63 221.7 67.7 207.8C72.3 194 78.7 180 75.5 166.2C72.3 152.3 59.7 138.7 63 124.8C66.3 111 85.7 97 93.7 83.2C101.7 69.3 98.3 55.7 93.5 41.8C88.7 28 82.3 14 79.2 7L76 0L173 0L173 7C173 14 173 28 176.2 41.8C179.3 55.7 185.7 69.3 174.5 83.2C163.3 97 134.7 111 129.8 124.8C125 138.7 144 152.3 145.5 166.2C147 180 131 194 121.5 207.8C112 221.7 109 235.3 121.8 249.2C134.7 263 163.3 277 164.8 290.8C166.3 304.7 140.7 318.3 142.3 332.2C144 346 173 360 173 373.8C173 387.7 144 401.3 134.3 415.2C124.7 429 134.3 443 136 456.8C137.7 470.7 131.3 484.3 131.3 498.2C131.3 512 137.7 526 140.8 533L144 540Z" fill="#1c222a"></path><path d="M0 540L0 533C0 526 0 512 0 498.2C0 484.3 0 470.7 0 456.8C0 443 0 429 0 415.2C0 401.3 0 387.7 0 373.8C0 360 0 346 0 332.2C0 318.3 0 304.7 0 290.8C0 277 0 263 0 249.2C0 235.3 0 221.7 0 207.8C0 194 0 180 0 166.2C0 152.3 0 138.7 0 124.8C0 111 0 97 0 83.2C0 69.3 0 55.7 0 41.8C0 28 0 14 0 7L0 0L77 0L80.2 7C83.3 14 89.7 28 94.5 41.8C99.3 55.7 102.7 69.3 94.7 83.2C86.7 97 67.3 111 64 124.8C60.7 138.7 73.3 152.3 76.5 166.2C79.7 180 73.3 194 68.7 207.8C64 221.7 61 235.3 65.8 249.2C70.7 263 83.3 277 83.3 290.8C83.3 304.7 70.7 318.3 72.3 332.2C74 346 90 360 88.3 373.8C86.7 387.7 67.3 401.3 57.7 415.2C48 429 48 443 52.8 456.8C57.7 470.7 67.3 484.3 75.3 498.2C83.3 512 89.7 526 92.8 533L96 540Z" fill="#1a1f26"></path></svg>